<?xml version="1.0" encoding="UTF-8" standalone="no"?>
<svg
   xmlns:dc="http://purl.org/dc/elements/1.1/"
   xmlns:cc="http://creativecommons.org/ns#"
   xmlns:rdf="http://www.w3.org/1999/02/22-rdf-syntax-ns#"
   xmlns:svg="http://www.w3.org/2000/svg"
   xmlns="http://www.w3.org/2000/svg"
   xmlns:sodipodi="http://sodipodi.sourceforge.net/DTD/sodipodi-0.dtd"
   xmlns:inkscape="http://www.inkscape.org/namespaces/inkscape"
   width="85.72mm"
   height="82.55mm"
   viewBox="0 0 243 234"
   id="svg2"
   version="1.1"
   inkscape:version="0.91 r13725"
   sodipodi:docname="Freifunk.lu_keen_text.svg">
  <metadata
     id="metadata60">
    <rdf:RDF>
      <cc:Work
         rdf:about="">
        <dc:format>image/svg+xml</dc:format>
        <dc:type
           rdf:resource="http://purl.org/dc/dcmitype/StillImage" />
        <dc:title>Freifunk.net</dc:title>
      </cc:Work>
    </rdf:RDF>
  </metadata>
  <defs
     id="defs58" />
  <sodipodi:namedview
     pagecolor="#ffffff"
     bordercolor="#666666"
     borderopacity="1"
     objecttolerance="10"
     gridtolerance="10"
     guidetolerance="10"
     inkscape:pageopacity="0"
     inkscape:pageshadow="2"
     inkscape:window-width="1366"
     inkscape:window-height="725"
     id="namedview56"
     showgrid="false"
     inkscape:zoom="0.80683758"
     inkscape:cx="52.713598"
     inkscape:cy="311.71082"
     inkscape:window-x="0"
     inkscape:window-y="25"
     inkscape:window-maximized="1"
     inkscape:current-layer="svg2" />
  <title
     id="title4">Freifunk.net</title>
  <g
     id="g6"
     transform="translate(-3.9663332,1.9831663)">
    <path
       d="M 67.45,51.55 A 60.49,60.49 0 1 1 7.21,112 60.37,60.37 0 0 1 67.45,51.55 Z"
       style="fill:#ffffff"
       id="path8"
       inkscape:connector-curvature="0" />
    <path
       d="m 156.81,0.29 c 47.51,0 86,38.67 86,86.38 0,47.71 -38.51,86.38 -86,86.38 -47.49,0 -86,-38.67 -86,-86.38 0,-47.71 38.49,-86.38 86,-86.38 z"
       style="fill:#ffffff"
       id="path10"
       inkscape:connector-curvature="0" />
  </g>
  <g
     id="g12">
    <path
       d="M67.45,163.72A51.68,51.68,0,1,1,118.91,112,51.63,51.63,0,0,1,67.45,163.72Zm0-100.82A49.15,49.15,0,1,0,116.39,112,49.1,49.1,0,0,0,67.45,62.9Z"
       style="fill: #dc0468"
       id="path14" />
    <g
       id="g16">
      <path
         d="M156.8,164.81C113.88,164.81,79,129.76,79,86.68S113.88,8.54,156.8,8.54h0c42.92,0,77.84,35.05,77.84,78.13S199.73,164.81,156.8,164.81Zm0-141.15a63,63,0,1,0,62.72,63A62.94,62.94,0,0,0,156.81,23.66Z"
         style="fill: #dc0468"
         id="path18" />
      <path
         d="M156.81,142a55.35,55.35,0,1,1,55.12-55.35A55.3,55.3,0,0,1,156.81,142Zm0-108.17A52.82,52.82,0,1,0,209.4,86.68,52.77,52.77,0,0,0,156.81,33.85Z"
         style="fill: #dc0468"
         id="path20" />
    </g>
  </g>
  <path
     d="m 62.800501,98.616833 -12.55,-12.6 -11.82,0 8.37,8.41 -16.75,0 0,8.409997 16.75,0 -8.37,8.41 11.82,0 12.55,-12.609997 0,0 z"
     style="fill:#fab313"
     id="path22"
     inkscape:connector-curvature="0" />
  <path
     d="m 33.623259,136.297 21.21,-21.35 20,0 -14.11,14.24 28.36,0 0,14.23 -28.36,0 14.17,14.28 -20.06,0 -21.21,-21.4 0,0 z"
     style="fill:#fab313"
     id="path24"
     inkscape:connector-curvature="0" />
  <g
     inkscape:groupmode="layer"
     id="layer1"
     inkscape:label="Layer 1" />
  <g
     transform="matrix(0.34664995,0,0,0.34993155,78.704961,34.266984)"
     id="layer1-1"
     inkscape:label="Layer 1">
    <circle
       style="fill:#ffffff;fill-opacity:1;fill-rule:evenodd;stroke:#000000;stroke-width:2;stroke-linecap:butt;stroke-linejoin:miter;stroke-miterlimit:4;stroke-dasharray:none;stroke-opacity:1"
       id="path3666"
       cx="225"
       cy="150"
       r="151" />
    <path
       id="rect2663"
       d="m 135.03125,270 c 25.0716,18.83481 56.21934,30 89.96875,30 33.74941,0 64.89715,-11.16519 89.96875,-30 l -179.9375,0 z"
       style="fill:#00a3dd;fill-opacity:1;fill-rule:evenodd;stroke:none;stroke-width:1;stroke-linecap:round;stroke-linejoin:round;stroke-miterlimit:4;stroke-dasharray:none;stroke-dashoffset:1;stroke-opacity:1"
       inkscape:connector-curvature="0" />
    <path
       id="rect2665"
       d="m 87.5,210 c 4.685535,10.71429 10.588559,20.76395 17.53125,30 l 239.9375,0 c 6.94269,-9.23605 12.84571,-19.28571 17.53125,-30 l -275,0 z"
       style="fill:#00a3dd;fill-opacity:1;fill-rule:evenodd;stroke:none;stroke-width:1;stroke-linecap:round;stroke-linejoin:round;stroke-miterlimit:4;stroke-dasharray:none;stroke-dashoffset:1;stroke-opacity:1"
       inkscape:connector-curvature="0" />
    <path
       id="rect2667"
       d="m 75,150 c 0,10.274 1.060554,20.30494 3.03125,30 l 293.9375,0 C 373.93945,170.30494 375,160.274 375,150 l -300,0 z"
       style="fill:#00a3dd;fill-opacity:1;fill-rule:evenodd;stroke:none;stroke-width:1;stroke-linecap:round;stroke-linejoin:round;stroke-miterlimit:4;stroke-dasharray:none;stroke-dashoffset:1;stroke-opacity:1"
       inkscape:connector-curvature="0" />
    <path
       id="rect2669"
       d="m 87.5,90 c -4.165498,9.525133 -7.348163,19.56754 -9.46875,30 l 293.9375,0 C 369.84816,109.56754 366.6655,99.525133 362.5,90 l -275,0 z"
       style="fill:#00a3dd;fill-opacity:1;fill-rule:evenodd;stroke:none;stroke-width:1;stroke-linecap:round;stroke-linejoin:round;stroke-miterlimit:4;stroke-dasharray:none;stroke-dashoffset:1;stroke-opacity:1"
       inkscape:connector-curvature="0" />
    <path
       id="rect2671"
       d="m 135.03125,30 c -11.35521,8.530502 -21.46627,18.647349 -30,30 l 239.9375,0 c -8.53373,-11.352651 -18.64479,-21.469498 -30,-30 l -179.9375,0 z"
       style="fill:#00a3dd;fill-opacity:1;fill-rule:evenodd;stroke:none;stroke-width:1;stroke-linecap:round;stroke-linejoin:round;stroke-miterlimit:4;stroke-dasharray:none;stroke-dashoffset:1;stroke-opacity:1"
       inkscape:connector-curvature="0" />
    <g
       transform="matrix(1.0338379,0,0,1.0338379,49.180903,24.33559)"
       id="g2569">
      <circle
         style="opacity:1;fill:#ef2b2d;fill-opacity:1;fill-rule:evenodd;stroke:#000000;stroke-width:1;stroke-linecap:round;stroke-linejoin:round;stroke-miterlimit:4;stroke-dasharray:none;stroke-dashoffset:1;stroke-opacity:1"
         id="path2499"
         cx="213.81021"
         cy="229.72453"
         r="4.1216426" />
      <path
         style="fill:#ef2b2d;fill-opacity:1;fill-rule:evenodd;stroke:#000000;stroke-width:1px;stroke-linecap:butt;stroke-linejoin:miter;stroke-opacity:1"
         d="m 122.4,104.8 c -1.8161,3.65459 -5.87009,6.14189 -9.4,8 -7.23291,3.80733 -12.66553,7.8954 -17,12 -5.584395,-9.35318 -11.494932,-2.2848 -12.4,-0.4 1.726692,-9.08233 -9.855632,-4.65893 -8.8,-1.9 -5.234952,1.87789 -3.186713,7.14356 -0.4,10.7 0.579311,0.93749 -3.263788,9.25803 6.8,8.6 2.926305,-0.19134 7.386888,-4.3926 10.859683,-7.19526 l -2.508964,7.52689 c 4.130299,-0.8748 6.915534,-2.79947 8.684875,-5.40392 1.064151,-1.56642 1.361117,-3.57256 4.095076,-3.34757 0.24069,1.60503 0.28099,3.41044 -1.39311,7.01451 2.83062,-1.76408 5.66125,-3.73536 8.49187,-7.52689 0.38733,2.01531 0.18958,4.22564 -0.96498,6.75491 4.14011,-2.56077 8.32347,-4.73227 11.96583,-11.77284 l 0,7.3339 c 3.1658,-2.71411 7.31743,-3.62555 8.24961,-10.2814 0.26202,-1.87082 0.85642,-3.53141 2.95507,-3.62668 l 0,8.59657 c 3.60888,-3.34232 6.36476,-9.01934 7.11903,-11.41732 0,0 0.80592,2.01483 1.34321,4.29829 0.53728,2.28347 0.80593,4.83557 0.80593,4.83557 3.67259,-3.9178 4.10281,-8.12509 3.49236,-12.35757 0,0 2.01482,2.78716 2.95507,5.10421 0.94025,2.31705 1.07457,5.37286 1.07457,5.37286 l 2.28346,-4.02965 L 158.9022,90.735016 144.33477,79.181537 121.22781,100.27919 122.4,104.8 Z"
         id="path2412"
         sodipodi:nodetypes="csccccsccsccccccscccsccscc"
         inkscape:connector-curvature="0" />
      <path
         style="fill:#ef2b2d;fill-opacity:1;fill-rule:evenodd;stroke:#000000;stroke-width:1px;stroke-linecap:butt;stroke-linejoin:miter;stroke-opacity:1"
         d="m 131.18415,68.014461 c 0,0 -7.85311,-7.824036 -15.84256,-13.717341 -7.40997,-5.465864 -8.40314,-17.113174 -2.31842,-22.797835 1.20251,-1.12345 2.20569,-2.374911 2.51162,-4.443646 0.61137,-4.134088 -6.1904,-6.650026 -8.11448,0.386404 0.21721,-6.252762 -8.222134,-5.189144 -7.728082,0.96601 -6.517499,-10.098125 -12.127064,3.722079 -7.148474,6.955272 -6.235588,3.862429 -2.859138,11.982167 2.89803,9.080493 -1.878006,4.847085 2.424746,4.285196 -1.352414,8.887292 0.70731,0.451902 1.240186,1.078238 4.443646,-0.96601 -0.298408,1.119733 -1.044344,1.627218 -1.646266,2.845453 -0.636258,1.287727 -1.134274,3.301592 -1.638168,5.075829 1.824979,0.408164 3.118188,0.284559 4.443646,0.193202 -1.910847,0.471757 -1.090292,4.99337 -1.045616,8.887291 1.675778,-0.521324 2.268358,-0.279522 2.977628,3.284434 1.05421,5.297154 10.62612,14.876554 10.62612,14.876554 22.9788,-4.566382 16.3498,-12.575531 18.93379,-19.513402 z"
         id="path2397"
         sodipodi:nodetypes="csssccccccscccscc"
         inkscape:connector-curvature="0" />
      <path
         style="fill:#f8d80e;fill-opacity:1;fill-rule:evenodd;stroke:#000000;stroke-width:1px;stroke-linecap:butt;stroke-linejoin:miter;stroke-opacity:1"
         d="m 85.5,26.2 c 3.38191,-2.071135 5.917846,-1.76106 8.5,-0.1 -0.487982,4.197393 -1.914029,3.746073 -3.4,4.7 -1.379125,-3.975083 -2.995463,-3.87574 -5.1,-4.6 z"
         id="path2389"
         sodipodi:nodetypes="cccc"
         inkscape:connector-curvature="0" />
      <path
         style="fill:#f8d80e;fill-opacity:1;fill-rule:evenodd;stroke:#000000;stroke-width:1px;stroke-linecap:butt;stroke-linejoin:miter;stroke-opacity:1"
         d="m 111.4,18.5 c 0.20983,2.604915 0.21163,5.105816 -2.2,6.4 1.08876,2.400374 2.97918,2.395787 5.4,0.8 0.59503,-3.877067 -1.49645,-5.366122 -3.2,-7.2 z"
         id="path2395"
         sodipodi:nodetypes="cccc"
         inkscape:connector-curvature="0" />
      <path
         style="fill:#f8d80e;fill-opacity:1;fill-rule:evenodd;stroke:#000000;stroke-width:1px;stroke-linecap:butt;stroke-linejoin:miter;stroke-opacity:1"
         d="m 84.6,36.4 c -0.320033,8.780022 6.03542,8.035627 6.7,6.1 0.794297,-2.313434 -0.829577,-3.312808 -3.5,-4.1 -2.129309,-0.627682 -3.2,-2 -3.2,-2 z"
         id="path2387"
         sodipodi:nodetypes="cssc"
         inkscape:connector-curvature="0" />
      <path
         style="fill:#f8d80e;fill-opacity:1;fill-rule:evenodd;stroke:#000000;stroke-width:1px;stroke-linecap:butt;stroke-linejoin:miter;stroke-opacity:1"
         d="m 98.4,18.3 c 2.89689,2.433333 1.68826,4.866667 1.3,7.3 2.77968,0.427493 4.64938,-0.600988 6.1,-2.3 -0.66203,-3.963473 -3.84306,-4.720949 -7.4,-5 z"
         id="path2391"
         sodipodi:nodetypes="cccc"
         inkscape:connector-curvature="0" />
      <path
         style="fill:#f8d80e;fill-opacity:1;fill-rule:evenodd;stroke:#000000;stroke-width:1px;stroke-linecap:butt;stroke-linejoin:miter;stroke-opacity:1"
         d="m 86.830495,115.34895 c 0.678159,2.45485 1.159573,4.82538 -0.358803,6.33886 1.91362,1.40442 3.827239,1.01739 5.740859,-0.1196 -0.235632,-2.69644 -1.957395,-4.79843 -5.382056,-6.21926 z"
         id="path2400"
         sodipodi:nodetypes="cccc"
         inkscape:connector-curvature="0" />
      <path
         style="fill:#f8d80e;fill-opacity:1;fill-rule:evenodd;stroke:#000000;stroke-width:1px;stroke-linecap:butt;stroke-linejoin:miter;stroke-opacity:1"
         d="m 73.935157,116.42536 c 4.694033,-1.89141 6.680829,-0.5723 7.872087,2.63123 -1.993354,1.99336 -3.986708,2.55149 -5.980062,1.67442 0.557619,-1.7479 1.598825,-3.49201 -1.892025,-4.30565 z"
         id="path2404"
         sodipodi:nodetypes="cccc"
         inkscape:connector-curvature="0" />
      <path
         style="fill:#f8d80e;fill-opacity:1;fill-rule:evenodd;stroke:#000000;stroke-width:1px;stroke-linecap:butt;stroke-linejoin:miter;stroke-opacity:1"
         d="m 65.063071,127.18947 c 1.668982,-1.00211 3.13564,-2.20655 6.338865,-1.67442 1.432262,1.20094 2.609787,2.82643 2.152823,7.17608 -4.513585,-0.63173 -6.031107,-3.4035 -8.491688,-5.50166 z"
         id="path2406"
         sodipodi:nodetypes="cccc"
         inkscape:connector-curvature="0" />
      <path
         style="fill:#f8d80e;fill-opacity:1;fill-rule:evenodd;stroke:#000000;stroke-width:1px;stroke-linecap:butt;stroke-linejoin:miter;stroke-opacity:1"
         d="m 70.684329,142.73763 c 0.0708,-2.16403 -0.988506,-3.30648 2.990031,-7.27408 3.505727,1.22122 3.364559,3.17183 3.827239,5.00166 -3.938594,-0.53844 -5.731861,0.59171 -6.81727,2.27242 z"
         id="path2408"
         sodipodi:nodetypes="cccc"
         inkscape:connector-curvature="0" />
      <path
         style="fill:none;fill-opacity:0.75;fill-rule:evenodd;stroke:#000000;stroke-width:1px;stroke-linecap:round;stroke-linejoin:round;stroke-opacity:1"
         d="m 74.8,122.6 c 2.287534,1.07808 1.635906,2.09773 1.778016,2.89598"
         id="path2414"
         sodipodi:nodetypes="cc"
         inkscape:connector-curvature="0" />
      <path
         style="fill:none;fill-opacity:0.75;fill-rule:evenodd;stroke:#000000;stroke-width:1px;stroke-linecap:round;stroke-linejoin:round;stroke-opacity:1"
         d="m 83.76193,123.99357 c 6.850416,3.71787 10.462992,1.73141 11.950134,1.07292"
         id="path2416"
         sodipodi:nodetypes="cc"
         inkscape:connector-curvature="0" />
      <path
         style="fill:none;fill-opacity:0.75;fill-rule:evenodd;stroke:#000000;stroke-width:1px;stroke-linecap:round;stroke-linejoin:round;stroke-opacity:1"
         d="m 91.449729,134.76471 c 1.134422,-1.32689 2.627171,-1.93713 4.186079,-2.41505"
         id="path2418"
         sodipodi:nodetypes="cc"
         inkscape:connector-curvature="0" />
      <path
         style="fill:none;fill-opacity:0.75;fill-rule:evenodd;stroke:#000000;stroke-width:1px;stroke-linecap:round;stroke-linejoin:round;stroke-opacity:1"
         d="m 102.41101,133.45223 c 0.30807,-1.56931 -0.71983,-3.99864 3.03315,-4.00208"
         id="path2420"
         sodipodi:nodetypes="cc"
         inkscape:connector-curvature="0" />
      <path
         style="fill:none;fill-opacity:0.75;fill-rule:evenodd;stroke:#000000;stroke-width:1px;stroke-linecap:round;stroke-linejoin:round;stroke-opacity:1"
         d="m 109.40411,133.11521 c -0.12328,-2.72892 1.43689,-3.24832 3.07528,-3.66506"
         id="path2422"
         sodipodi:nodetypes="cc"
         inkscape:connector-curvature="0" />
      <path
         style="fill:none;fill-opacity:0.75;fill-rule:evenodd;stroke:#000000;stroke-width:1px;stroke-linecap:round;stroke-linejoin:round;stroke-opacity:1"
         d="m 120.39929,128.39698 c -0.15929,-3.3556 1.0172,-3.46086 2.14848,-4.00208"
         id="path2426"
         sodipodi:nodetypes="cc"
         inkscape:connector-curvature="0" />
      <path
         style="fill:none;fill-opacity:0.75;fill-rule:evenodd;stroke:#000000;stroke-width:1px;stroke-linecap:round;stroke-linejoin:round;stroke-opacity:1"
         d="m 241.75457,67.626217 c 1.46304,-0.4602 2.11294,-1.326967 2.95875,-2.095781"
         id="path2432"
         sodipodi:nodetypes="cc"
         inkscape:connector-curvature="0" />
      <path
         style="fill:#ef2b2d;fill-opacity:1;fill-rule:evenodd;stroke:#000000;stroke-width:1px;stroke-linecap:butt;stroke-linejoin:round;stroke-opacity:1"
         d="m 197.34658,142.89033 c 0,0 -5.93644,-0.41743 -14.14658,0.17634 -10.9428,0.7914 -18.76744,0.52248 -24.93333,4.26666 -8.39294,5.09654 -10.24363,6.26667 -14.13334,6.26667 -2.17837,0 -2.95773,-1.06667 -5.2,-1.06667 -5.55587,0 -16.15077,7.57975 -16.15077,7.57975 -7.00721,-3.61817 -7.2,5.95488 -7.2,8.53897 0,4.68372 0.90799,7.09643 0.90799,10.16578 0,5.22285 -3.02995,7.01236 -3.02995,8.70332 1.69182,0.59445 2.68036,3.05431 7.23815,-6.12101 -0.96965,9.31271 -3.74992,14.50691 -5.86331,19.07503 -1.01833,2.20112 -1.72,4.10357 -2.73346,5.802 -3.96376,6.64274 -9.64824,10.47687 -13.166835,10.47687 -3.773868,0 -5.678676,-2.39766 -5.678676,-2.39766 4.537491,-3.02482 -4.659343,-11.182 -7.066796,0.12619 -6.110907,0.75853 -5.337121,10.59687 -0.913902,10.47002 2.818408,9.12318 7.816973,9.0897 13.97552,4.18429 0,0 0.418425,2.30136 0.418425,3.93323 0,1.63187 -0.418425,2.59425 -0.418425,2.59425 3.889959,-0.36046 5.793509,-2.36173 7.010569,-5.17235 5.39914,7.9869 13.4609,1.45415 13.45443,-1.50076 -0.006,-2.95583 -1.24915,-2.36326 -1.28291,-4.99662 -0.0338,-2.63336 1.24218,-4.59367 1.24218,-4.59367 1.50756,3.0522 3.54399,4.15928 4.83479,7.7672 3.02997,-2.83266 1.73864,-6.57132 2.05703,-10.30784 3.00888,1.62686 4.03124,3.56118 3.7725,6.69618 0,0 2.40497,-2.87653 2.2635,-5.94169 -0.14147,-3.06516 -2.65271,-6.02404 -2.65271,-6.02404 7.7875,-0.68574 6.33388,1.19809 7.46265,2.06292 3.24396,-4.28656 0.67731,-8.91203 -3.36243,-12.0886 6.09556,-1.09583 7.75447,1.29239 9.64911,4.13491 3.05769,-2.13393 2.36568,-8.01329 -1.63349,-11.93429 l 3.07046,-0.59577 1.69564,1.69563 c 1.98268,-2.80251 -0.0109,-6.17306 -1.28318,-9.44055 l 4.12451,2.38305 c -1.13449,-3.12241 -1.42307,-4.97594 -1.37483,-6.32425 2.06062,1.1881 3.04719,3.18174 3.93993,5.24575 1.27976,-2.44694 1.41966,-5.5778 1.22504,-8.90938 2.7313,1.96882 3.98716,5.0107 3.45238,9.35485 1.35647,-1.95781 3.13139,-2.93921 3.67512,-6.79341 1.22082,1.17747 2.0483,2.06095 6.98545,2.3808 -3.06875,-2.82867 -3.81346,-5.57372 -3.16038,-7.8413 1.31432,-4.56343 9.53973,-5.33611 18.07132,-5.48593 8.53159,-0.14982 11.38788,-3.32423 17.4259,-5.32458 l -2.56729,-21.22029 z"
         id="path2525"
         sodipodi:nodetypes="csssscssccsssccccscczsccccscccccccccccccccszc"
         inkscape:connector-curvature="0" />
      <path
         style="fill:#ef2b2d;fill-opacity:1;fill-rule:evenodd;stroke:#000000;stroke-width:1px;stroke-linecap:butt;stroke-linejoin:miter;stroke-opacity:1"
         d="m 197.08923,148.40803 -6.76925,0 c 1.48237,2.71235 3.25686,4.98654 4.1006,8.65683 -0.97201,1.45992 -1.88881,2.89968 -1.36687,4.03551 0.61091,1.32945 0.75243,2.9267 4.16569,2.60355 l 2.27811,-0.26035 -2.40828,-15.03554 z"
         id="path2523"
         sodipodi:nodetypes="cccsccc"
         inkscape:connector-curvature="0" />
      <path
         id="path2430"
         style="fill:#ef2b2d;fill-opacity:1;fill-rule:evenodd;stroke:#000000;stroke-width:1px;stroke-linecap:butt;stroke-linejoin:miter;stroke-opacity:1"
         d="m 256.9375,54.84375 c -2.73077,0.11965 -5.69958,1.077028 -8.53125,3.40625 -0.73863,0.607573 -4.98365,4.77079 -6.75,2.875 -0.457,-0.513229 -0.74468,-1.471215 -0.75,-3 -4.07121,2.662355 -5.42492,6.313272 0.6875,9.46875 -0.25862,5.536997 -0.67654,11.590979 5.8125,16.21875 0,-2.388342 -0.50365,-3.96967 0.40625,-6 0.79895,-1.782755 1.78124,-1.643067 1.78125,-4.8125 3.4228,0.376229 7.31767,-1.231754 5.59375,-4.59375 -6.67059,-1.17482 -2.22898,-6.640081 2,-7 2.11976,-0.180409 5.40624,0.307066 5.40625,7 0,5.08579 -0.80117,6.777508 -8,13.78125 -3.09537,3.011478 -5.1271,4.575717 -7.03125,6.15625 0.50654,0.6044 0.97411,1.188049 1.4375,1.71875 0.78647,0.900708 1.59539,1.768144 2.375,2.65625 0.7046,-0.654563 1.44122,-1.309856 2.1875,-1.9375 2.18739,-1.839669 5.50897,-5.164106 7.625,-7.21875 7.65311,-7.431093 11.0468,-19.162407 5.09375,-25.4375 -1.6519,-1.741265 -5.22083,-3.461898 -9.34375,-3.28125 z m -6.91318,162.80598 c 1.18933,4.40259 1.14171,8.24914 -0.42432,10.15027 -1.06966,-0.55276 -3.60446,-7.12442 -6.2,-7 -0.48852,4.56638 -4.88619,8.01587 -8.98739,11.55006 l 5.56469,5.33283 c -5.14471,2.28041 -7.91386,0.75991 -10.4338,-1.15931 -1.72159,6.72193 -3.22583,7.6347 -6.26028,8.11518 0.75743,-2.80303 1.88862,-5.79293 0.60661,-7.57624 -5.75449,4.11549 -8.1283,10.12237 -16.49393,6.26159 l -3.66532,-2.44355 -0.91633,-2.59626 -1.22177,-4.42893 c 1.29816,-2.38633 -5.44026,0.53591 4.34244,-7.24967 3.56408,2.77542 6.23989,7.66366 14.19575,2.61282 2.96429,-1.88191 2.05228,-5.29016 2.37554,-7.67317 0.37433,-2.75948 -0.42162,-5.62853 2.36137,-8.37216 1.49944,-1.47824 2.46871,-2.17312 2.46871,-4.93742 0,-3.25031 -2.13932,-5.79934 -6.03061,-5.79934 -2.78463,0 -3.99625,-0.93602 -5.69536,-1.76285 -1.10101,3.87429 -3.40032,4.64356 -5.55976,5.69536 -0.30383,-3.35748 -0.57994,-6.33587 -2.30528,-8.27184 0.91825,14.60994 -8.05246,11.36534 -9.74528,10.5029 1.96114,-2.01871 4.96044,-2.13565 3.76777,-8.04638 -0.78876,-3.90905 -4.94061,-10.4756 -6.87817,-15.69224 -2.39166,-6.43925 -2.12887,-14.4134 2.62889,-19.50617 -0.21173,-6.53723 -0.85282,-13.87204 -6.33099,-20.04271 -5.40449,-6.08767 -7.74186,-8.94325 -12.375,-10.71875 -7.63638,-0.13956 -23.77064,-3.49691 -27.8125,-12.40625 -2.2869,-5.04095 -1.86808,-15.95342 0.8125,-28.28125 L 158.21875,83.6875 180.5,85.375 l 8.03125,18.09375 c 5.13784,5.57384 11.06954,11.25489 13.25,16.40625 1.8789,4.54492 7.041,7.78742 12.03125,10.875 6.52266,4.03571 8.7776,7.28654 11.0625,10.71875 0.0355,0.0409 0.0869,0.0879 0.125,0.125 0.0232,0.0218 0.0697,0.0732 0.0937,0.0937 0.95949,0.79136 2.61099,0.6224 4.375,1.03125 2.17103,0.5032 4.10588,2.48713 5.75,3.5 11.08571,4.68152 11.37014,-0.76499 11.46875,-6.28125 0.0624,-3.48837 -1.83123,-6.88727 -4.0625,-10.46875 -6.22995,-9.99987 -6.3743,-14.38104 -6.25,-19.09375 0.11593,-4.39525 0.89413,-11.214412 6.125,-17.125 0.13471,-0.152216 0.24442,-0.29328 0.375,-0.4375 1.48294,1.736729 2.90329,3.294801 4.125,4.6875 0.01,0.01084 0.0217,0.02042 0.0312,0.03125 -2.5437,3.47172 -4.23644,7.5294 -4.34375,12.71875 -0.10224,5.04344 1.68757,10.31058 5.21875,15.8125 6.64578,10.35478 7.1829,17.19196 3.39506,20.86613 5.86898,-2.80469 11.42037,-7.50706 11.42992,-18.8474 0.009,-10.45587 -3.44475,-16.55382 -15.73841,-30.568041 -7.56783,-8.626983 -21.84074,-24.219291 -21.84074,-42.255579 0,-12.472233 8.59939,-27.870767 23.86321,-27.870767 6.92666,0 12.70976,1.611108 15.78184,6.154863 4.92915,-0.19747 7.37749,2.077481 10.76411,0.13212 0.19417,2.470137 -0.33299,4.518387 -4.25049,5.200876 4.91141,2.684504 6.91116,6.43141 6.91116,13.481198 0,8.728369 3.39996,10.199061 5.71142,11.325317 -10.9638,0.60019 -18.1816,-3.743242 -19.34596,-16.659532 -1.48436,2.601841 -3.40669,2.137937 -5.20542,2.539226 -0.0117,-8.231709 -3.26816,-14.551982 -11.42651,-14.481435 -14.51557,0.12552 -15.99713,15.059082 -15.99713,18.925081 0,14.696632 10.78632,28.864497 17.05698,36.045971 10.5014,12.026722 20.76645,22.688512 20.76645,38.436162 0,7.60341 -5.82786,28.23141 -22.08575,28.23141 -8.63601,0 -15.09826,-6.25055 -18.75163,-6.25055 1.88516,4.28439 5.67423,8.07738 5.67423,12.79469 0,2.95463 0.84309,4.56037 1.84947,5.41631 -2.43759,0.54557 -4.07486,-0.11704 -6.07683,-1.45315 0.56073,0.94211 -1.21075,6.38905 12.02156,3.30263 0.2194,2.10435 -0.79143,3.22451 -1.93185,4.24101 5.00292,2.00852 5.86139,3.26351 8.08166,4.7661 l -8.18527,0 c 7.03594,1.79965 11.3174,5.90771 11.18998,7.14915 -0.14603,1.83046 1.81714,3.14287 3.83361,4.97333 1.76818,2.00776 4.40792,2.90173 4.44198,7.0296 0.0102,1.23684 0.1344,2.43962 0.87405,3.99566 -2.16482,-1.04129 -3.73483,-1.19037 -5.2443,-1.24864 5.87689,5.31404 7.39336,8.51164 6.99241,10.23888 -0.24905,1.07287 0.19566,2.39156 -0.99892,3.8708 -2.58053,-4.23564 -5.16107,-4.8074 -7.7416,-5.11944 2.67622,2.38161 3.52465,5.85988 2.87189,10.23888 -1.20765,-1.32602 -3.79157,-2.00219 -6.57211,-3.01363 z"
         sodipodi:nodetypes="csccccsccssscscssscccscscccccscssscsssscsccscsssscccscccsssscssccccsssssccccccscccccccccccccccsccscccc"
         inkscape:connector-curvature="0" />
      <g
         id="g2447">
        <path
           sodipodi:nodetypes="csccs"
           id="path2381"
           d="m 170.50635,21.332903 c 7.91144,0.08595 23.71456,0.827505 31.58343,2.650358 2.17828,0.504606 2.25316,2.975532 0,3.53381 -10.79552,-0.103802 -21.62394,0.05563 -32.13559,-2.319063 -2.14318,-1.753816 -1.85702,-3.891278 0.55216,-3.865105 z"
           style="fill:#f8d80e;fill-opacity:1;fill-rule:evenodd;stroke:#000000;stroke-width:1px;stroke-linecap:butt;stroke-linejoin:miter;stroke-opacity:1"
           inkscape:connector-curvature="0" />
        <path
           sodipodi:nodetypes="ccsscsscscssczscczscccssc"
           id="path2383"
           d="m 163.41809,6.434407 c 3.08525,0.038231 6.27595,-0.1332026 6.19552,3.989508 7.35094,0.303268 2.65145,4.534738 2.06517,5.028249 -3.3604,2.828658 -0.24514,3.081024 0.80812,3.052865 2.49343,-0.06666 4.05755,-1.485972 5.11803,-3.681396 1.43839,2.420835 3.05488,4.757378 5.65678,4.579298 2.12936,-0.145739 2.14602,-1.261659 0.17958,-1.706013 -3.20541,-0.724322 -2.53652,-4.886101 0.89791,-4.758878 0.0583,-1.894705 0.1856,-4.645572 2.60391,-4.4895085 3.60723,0.2327892 2.74457,2.7534085 1.7958,4.9384585 3.64364,-0.370854 3.19249,4.028877 1.52644,4.309927 -4.41846,0.745363 -2.26005,1.576599 -1.79581,1.706014 5.29542,1.476198 5.82824,-1.811885 7.00364,-2.873285 1.20528,2.046636 1.10728,3.020171 3.95076,3.771186 2.92733,0.773161 4.62373,-1.253059 1.8856,-2.424334 -5.08283,-2.174254 0.18014,-6.349822 3.14265,-5.207829 0.28777,-3.4624964 3.6975,-2.663373 6.55468,-2.154964 -3.76012,2.392561 -3.48015,3.383922 -4.39971,6.464892 -0.89492,2.998425 -3.39266,6.052967 -6.10574,5.74657 -4.07492,-0.460194 -4.31051,-1.535076 -5.20782,-2.912026 -2.39913,3.408894 -6.27339,1.917991 -9.06881,0.667272 -3.71672,1.403477 -6.66872,0.840524 -8.70965,-2.065174 -1.42805,1.17586 -2.71943,2.443498 -5.02824,2.244754 -4.99425,-0.429907 -6.0664,-4.024584 -5.92615,-6.644472 0.17712,-3.308532 -1.50102,-5.4382915 -3.14266,-7.581114 z"
           style="fill:#f8d80e;fill-opacity:1;fill-rule:evenodd;stroke:#000000;stroke-width:1px;stroke-linecap:butt;stroke-linejoin:miter;stroke-opacity:1"
           inkscape:connector-curvature="0" />
        <circle
           transform="translate(0,0.5)"
           id="path2317"
           style="opacity:1;fill:#ffffff;fill-opacity:1;fill-rule:evenodd;stroke:#000000;stroke-width:1;stroke-linecap:square;stroke-linejoin:round;stroke-miterlimit:4;stroke-dasharray:none;stroke-dashoffset:1;stroke-opacity:1"
           cx="177.8"
           cy="12.8"
           r="1.8" />
        <circle
           style="opacity:1;fill:#ffffff;fill-opacity:1;fill-rule:evenodd;stroke:#000000;stroke-width:1;stroke-linecap:square;stroke-linejoin:round;stroke-miterlimit:4;stroke-dasharray:none;stroke-dashoffset:1;stroke-opacity:1"
           id="path2321"
           transform="translate(-11.4,1.3)"
           cx="177.8"
           cy="12.8"
           r="1.8" />
        <circle
           style="opacity:1;fill:#ffffff;fill-opacity:1;fill-rule:evenodd;stroke:#000000;stroke-width:1;stroke-linecap:square;stroke-linejoin:round;stroke-miterlimit:4;stroke-dasharray:none;stroke-dashoffset:1;stroke-opacity:1"
           id="path2323"
           transform="translate(8.53063,2.7)"
           cx="177.8"
           cy="12.8"
           r="1.8" />
        <circle
           transform="translate(18,1.9)"
           id="path2325"
           style="opacity:1;fill:#ffffff;fill-opacity:1;fill-rule:evenodd;stroke:#000000;stroke-width:1;stroke-linecap:square;stroke-linejoin:round;stroke-miterlimit:4;stroke-dasharray:none;stroke-dashoffset:1;stroke-opacity:1"
           cx="177.8"
           cy="12.8"
           r="1.8" />
        <circle
           style="opacity:1;fill:#ffffff;fill-opacity:1;fill-rule:evenodd;stroke:#000000;stroke-width:1;stroke-linecap:square;stroke-linejoin:round;stroke-miterlimit:4;stroke-dasharray:none;stroke-dashoffset:1;stroke-opacity:1"
           id="path2327"
           transform="translate(29.2,4.3)"
           cx="177.8"
           cy="12.8"
           r="1.8" />
        <path
           id="path2377"
           d="m 154.93394,44.280604 2.64569,4.129851 0.0645,-4.968727 -2.71022,0.838876 z"
           style="fill:#ffffff;fill-opacity:1;fill-rule:evenodd;stroke:#000000;stroke-width:1px;stroke-linecap:butt;stroke-linejoin:miter;stroke-opacity:1"
           inkscape:connector-curvature="0" />
        <path
           id="path2379"
           d="m 157.57963,56.089397 -0.12906,-5.355901 3.48456,5.743075 -3.3555,-0.387174 z"
           style="fill:#ffffff;fill-opacity:1;fill-rule:evenodd;stroke:#000000;stroke-width:1px;stroke-linecap:butt;stroke-linejoin:miter;stroke-opacity:1"
           inkscape:connector-curvature="0" />
        <path
           sodipodi:nodetypes="ccczzsscc"
           id="path2375"
           d="m 165.1049,51.647493 c -4.10154,-1.899649 -6.09822,-4.258741 -17.55377,-4.057242 -2.32091,-0.05272 -3.41345,-1.333807 -3.97445,-3.146433 2.34341,0.648234 3.47764,-0.379195 3.47764,-2.318424 0,-1.858961 -1.67669,-2.802981 -3.72604,-2.732428 -2.04934,0.07055 -3.72604,1.104872 -3.72604,3.394836 0,1.18463 -0.40568,7.691438 10.51571,7.534877 6.55183,-0.09392 11.03016,1.293914 15.15255,3.477636 l -0.1656,-2.152822 z"
           style="fill:#f8d80e;fill-opacity:1;fill-rule:evenodd;stroke:#000000;stroke-width:1px;stroke-linecap:butt;stroke-linejoin:miter;stroke-opacity:1"
           inkscape:connector-curvature="0" />
        <path
           sodipodi:nodetypes="cccccccsccccsccccccccccccscccscscccccccccccccscccsc"
           id="path2329"
           d="M 168.22407,24.689568 C 171.2838,25.222901 172.77146,25.866667 185,26.4 c 0.74482,-1.860921 4.40219,-1.765573 9.4,-1.5 l -0.8,2.5 8.6,0.2 c 2.86583,4.486784 2.94861,11.066077 9.4,10.2 -0.5484,2.636531 -1.59053,4.785601 -3.6,4.8 0.94104,1.8 2.37688,3.566068 2.4,5.4 0.0563,4.465864 1.67725,3.541443 3.2,4.4 0.52604,3.078772 -1.46255,4.585908 -5.2,5 0.79666,1.201113 0.43113,2.789625 4.2,3 -0.6391,2.170676 -0.30914,5.552883 -5,4.7 -0.2,2.6 -1.01597,3.212533 -1.6,7.3 -0.36612,2.562375 -0.47869,5.521307 -0.4,8.6 -3.92225,1.216702 -6.19534,-0.04032 -8,-2 l 0,9 c -0.36841,2.133333 1.04856,4.266667 6,6.4 -4.28007,3.902397 -6.38633,2.00799 -9.2,2 0.24858,1.840111 -1.29874,2.882043 3.4,6.7 -5.11126,1.10022 -10.43179,2.01435 -11.4,-3.1 -0.9245,2.34216 -2.94219,3.59114 -6,3.8 l -0.2,-6.2 c -1.03576,2.94879 -2.09823,5.13422 -6.3,6.5 1.7276,-6.138639 0.41867,-7.026136 -0.4,-9.6 -4.26329,13.87825 -12.74718,10.67645 -15.1,9.9 4.49286,-2.33909 3.08285,-9.474067 2,-11.8 -1.77963,-3.822625 -1,-5.4 -1,-5.4 -3.68592,2.38568 -6.01212,5.081314 -6.5,8 -1.79542,-1.971244 -3.87651,-3.656826 -3.1,-8.2 -2.86667,1.933332 -6.49092,3.388522 -10.4,3.2 -4.01369,-0.193567 -7.33819,2.294498 -10.8,5.8 -5.96505,11.16975 -7.84987,9.6 -11.2,9.6 -2.73697,0 -4.50472,-2.73333 -5,-4 4.53346,0.089 7.95457,-0.89695 7.7,-4 -2.86334,1.128317 -5.78976,2.035829 -9.7,-0.5 3.48295,-2.216538 4.91092,-3.748083 5.2,-4.9 -4.5972,0.364336 -5.67691,-2.202577 -7.2,-4.4 5.6,0.957838 11.2,-7.869428 16.8,-13.2 -3.73129,-0.187483 -4.41297,-1.594811 -5.6,-2.8 10.81123,-1.907368 16.82472,-8.4 24.4,-8.4 l 9,1.8 1.2,-2.8 c 0.50932,-4.146623 0.39783,-5.189126 0.4,-6.8 9.89578,2.481221 9.34085,-0.262908 10,-2.4 l 0,-9 c -2.58979,-4.847664 -3.93418,0.5 -8.4,0.5 -2.31311,0 -4.75417,-3.356437 -4.9683,-6.163416 -1.71793,-0.07251 -2.23754,-3.584802 -2.6317,-5.136584 1.75442,-0.126305 3.62946,-0.379068 6.9,0 0.57056,-2.288893 1.89905,-4.083139 4.63758,-4.297256 2.71721,-0.21245 4.02059,-3.321991 8.08649,-4.413176 z"
           style="fill:#ef2b2d;fill-opacity:1;fill-rule:evenodd;stroke:#000000;stroke-width:1px;stroke-linecap:butt;stroke-linejoin:miter;stroke-opacity:1"
           inkscape:connector-curvature="0" />
        <path
           sodipodi:nodetypes="cc"
           id="path2331"
           d="m 207.6,65 c -2.37149,-3.171489 -2.24887,-3.848872 -3.2,-5.6"
           style="fill:none;fill-opacity:0.75;fill-rule:evenodd;stroke:#000000;stroke-width:1px;stroke-linecap:round;stroke-linejoin:round;stroke-opacity:1"
           inkscape:connector-curvature="0" />
        <path
           sodipodi:nodetypes="cc"
           id="path2333"
           d="m 197.2,78.8 c -2.59698,-3.131522 -1.6643,-4.145249 -1.8,-5.8"
           style="fill:none;fill-opacity:0.75;fill-rule:evenodd;stroke:#000000;stroke-width:1px;stroke-linecap:round;stroke-linejoin:round;stroke-opacity:1"
           inkscape:connector-curvature="0" />
        <path
           sodipodi:nodetypes="cc"
           id="path2335"
           d="m 194.39569,96.323167 c 0,-1.624938 -1.99138,-3.094747 -2.0951,-5.088109"
           style="fill:none;fill-opacity:0.75;fill-rule:evenodd;stroke:#000000;stroke-width:1px;stroke-linecap:round;stroke-linejoin:round;stroke-opacity:1"
           inkscape:connector-curvature="0" />
        <path
           sodipodi:nodetypes="cc"
           id="path2337"
           d="m 186.46423,99.316172 c -0.34334,-5.605466 -5.4414,-7.362877 -2.99301,-12.869922"
           style="fill:none;fill-opacity:0.75;fill-rule:evenodd;stroke:#000000;stroke-width:1px;stroke-linecap:round;stroke-linejoin:round;stroke-opacity:1"
           inkscape:connector-curvature="0" />
        <path
           sodipodi:nodetypes="cc"
           id="path2339"
           d="m 180.1,98.2 c 0.4174,-1.461357 -0.16895,-2.588128 -0.5,-3.8"
           style="fill:none;fill-opacity:0.75;fill-rule:evenodd;stroke:#000000;stroke-width:1px;stroke-linecap:round;stroke-linejoin:round;stroke-opacity:1"
           inkscape:connector-curvature="0" />
        <path
           sodipodi:nodetypes="cc"
           id="path2341"
           d="m 173.5,94.6 c 0.44751,-4.16524 -0.57346,-5.026386 -1.1,-7"
           style="fill:none;fill-opacity:0.75;fill-rule:evenodd;stroke:#000000;stroke-width:1px;stroke-linecap:round;stroke-linejoin:round;stroke-opacity:1"
           inkscape:connector-curvature="0" />
        <path
           sodipodi:nodetypes="cc"
           id="path2343"
           d="m 149.5,87.3 c 2.35193,-1.985267 1.82302,-3.189691 4.1,-5.1"
           style="fill:none;fill-opacity:0.75;fill-rule:evenodd;stroke:#000000;stroke-width:1px;stroke-linecap:round;stroke-linejoin:round;stroke-opacity:1"
           inkscape:connector-curvature="0" />
        <path
           sodipodi:nodetypes="cc"
           id="path2345"
           d="m 128.4,96 c -1.50796,-9.754135 3.95172,-11.907212 8,-15.6"
           style="fill:none;fill-opacity:0.75;fill-rule:evenodd;stroke:#000000;stroke-width:1px;stroke-linecap:round;stroke-linejoin:round;stroke-opacity:1"
           inkscape:connector-curvature="0" />
        <path
           sodipodi:nodetypes="cc"
           id="path2347"
           d="m 120,97.6 c 0.0144,-2.912225 1.18339,-5.916658 4.9,-8.3"
           style="fill:none;fill-opacity:0.75;fill-rule:evenodd;stroke:#000000;stroke-width:1px;stroke-linecap:round;stroke-linejoin:round;stroke-opacity:1"
           inkscape:connector-curvature="0" />
        <path
           sodipodi:nodetypes="cc"
           id="path2349"
           d="m 115.7,92.1 c 0.55035,-1.943529 2.21642,-3.18974 4.9,-3.8"
           style="fill:none;fill-opacity:0.75;fill-rule:evenodd;stroke:#000000;stroke-width:1px;stroke-linecap:round;stroke-linejoin:round;stroke-opacity:1"
           inkscape:connector-curvature="0" />
        <path
           id="path2351"
           d="m 125.2,74.6 6.5,-2.3"
           style="fill:none;fill-opacity:0.75;fill-rule:evenodd;stroke:#000000;stroke-width:1px;stroke-linecap:round;stroke-linejoin:round;stroke-opacity:1"
           inkscape:connector-curvature="0" />
        <path
           sodipodi:nodetypes="csc"
           id="path2353"
           d="m 153,65.2 c 5.61138,1.965398 8.12146,-0.483563 14.75759,-0.698252 C 172.17419,64.358863 172.66837,60.374862 177.8,59.5"
           style="fill:none;fill-opacity:0.75;fill-rule:evenodd;stroke:#000000;stroke-width:1px;stroke-linecap:round;stroke-linejoin:round;stroke-opacity:1"
           inkscape:connector-curvature="0" />
        <path
           sodipodi:nodetypes="csc"
           id="path2355"
           d="m 154.2,62.4 c 5.42553,-0.600677 12.27996,0.891208 17.05037,-3.736498 C 173.45103,56.528675 175.81234,55.032278 178.4,53.6"
           style="fill:none;fill-opacity:0.75;fill-rule:evenodd;stroke:#000000;stroke-width:1px;stroke-linecap:round;stroke-linejoin:round;stroke-opacity:1"
           inkscape:connector-curvature="0" />
        <path
           sodipodi:nodetypes="cc"
           id="path2357"
           d="m 193.55359,27.455614 -1.24033,4.9324"
           style="fill:none;fill-opacity:0.75;fill-rule:evenodd;stroke:#000000;stroke-width:1px;stroke-linecap:round;stroke-linejoin:round;stroke-opacity:1"
           inkscape:connector-curvature="0" />
        <path
           sodipodi:nodetypes="csc"
           id="path2359"
           d="m 184.9,26.5 c 0,0 -0.58294,3.482422 -1.4,2.6 -0.625,-0.675 -3.1,-0.9 -3.1,-0.9"
           style="fill:none;fill-opacity:0.75;fill-rule:evenodd;stroke:#000000;stroke-width:1px;stroke-linecap:butt;stroke-linejoin:miter;stroke-opacity:1"
           inkscape:connector-curvature="0" />
        <path
           id="path2361"
           d="m 183.5,31.4 c -0.0478,0.812199 0.10088,1.260176 0.8,1.4 0.3236,0.06472 0.91143,0.577857 1.4,0.7 0.71123,0.177808 0.77099,0.158014 0.5,0.7 -0.20296,0.405915 -0.44755,0.795102 -0.6,1.1 -0.23509,0.470173 -0.35444,0.754436 -0.7,1.1 -0.3264,0.326402 -0.4,1.023061 -0.4,1.5 0,0.558684 -0.11389,1.04445 0,1.5 0.0908,0.363396 0.79797,0.795933 1,1.2 0.20924,0.418475 0.1,1.124471 0.1,1.6 0,0.568788 -0.28273,0.630905 -0.4,1.1 -0.11101,0.44402 -0.48955,0.858196 -0.6,1.3 -0.11356,0.454253 -0.3,0.568924 -0.3,1.1"
           style="fill:none;fill-opacity:0.75;fill-rule:evenodd;stroke:#000000;stroke-width:1;stroke-linecap:round;stroke-linejoin:round;stroke-miterlimit:4;stroke-dasharray:none;stroke-opacity:1"
           inkscape:connector-curvature="0" />
        <path
           sodipodi:nodetypes="cccc"
           id="path2363"
           d="m 186.3,28.6 4.2,-2.1 0.1,4.1 c -0.0581,-2.294684 -1.8536,-2.358959 -4.3,-2 z"
           style="fill:none;fill-opacity:0.75;fill-rule:evenodd;stroke:#000000;stroke-width:1px;stroke-linecap:round;stroke-linejoin:round;stroke-opacity:1"
           inkscape:connector-curvature="0" />
        <path
           id="path2365"
           d="m 163.3,35.3 c -0.14834,1.119679 0.0848,1.541309 0.6,2.4 0.3356,0.559341 0.50849,1.014147 0.8,1.5 0.39065,0.651084 0.89784,0.673383 1.6,1.2 0.65363,0.490219 1.95819,0.3 2.8,0.3 0.44004,0 0.1,0.746816 0.1,1.3 0,0.743011 0.33011,0.93011 0.7,1.3 0.4339,0.433899 0.50336,0.651681 1,0.9 0.43634,0.218169 0.86037,0.2 1.4,0.2 0.89462,0 1.0854,0.0927 1.7,0.4 0.40892,0.204461 0.71317,0.513169 1,0.8 0.38266,0.382662 0.81874,0.609372 1.2,0.8 0.42707,0.213534 0.3,0.829066 0.3,1.3 0,0.266667 0,0.533333 0,0.8"
           style="fill:none;fill-opacity:0.75;fill-rule:evenodd;stroke:#000000;stroke-width:1px;stroke-linecap:round;stroke-linejoin:round;stroke-opacity:1"
           inkscape:connector-curvature="0" />
        <path
           id="path2367"
           d="m 151.2,38.4 3.5,-2.1"
           style="fill:none;fill-opacity:0.75;fill-rule:evenodd;stroke:#000000;stroke-width:1px;stroke-linecap:round;stroke-linejoin:round;stroke-opacity:1"
           inkscape:connector-curvature="0" />
        <path
           sodipodi:nodetypes="cc"
           id="path2369"
           d="m 208,42.5 c -3.60499,0.378028 -2.70405,-1.292096 -3.7,-2.1"
           style="fill:none;fill-opacity:0.75;fill-rule:evenodd;stroke:#000000;stroke-width:1px;stroke-linecap:round;stroke-linejoin:round;stroke-opacity:1"
           inkscape:connector-curvature="0" />
        <path
           id="path2371"
           d="m 167.39156,29.439819 c -0.3169,0.01986 -1.13523,-0.05936 -1.66163,0.07224 -0.35192,0.08798 -0.5608,0.344062 -0.7947,0.57796 -0.33328,0.333282 -0.33769,0.483834 -0.43347,0.866939 -0.10265,0.4106 -0.14449,0.715589 -0.14449,1.15592 0,0.355067 0.01,0.761722 0.0722,1.011429 0.10142,0.405668 0.17889,0.549577 0.50571,0.794695 0.34468,0.25851 0.16232,0.383741 0.65021,0.505714 0.39182,0.09796 0.70805,0.07225 1.22816,0.07225 0.44295,0 0.66464,-0.05779 1.01143,-0.14449 0.26346,-0.06586 0.49039,-0.317437 0.72245,-0.433469 0.33771,-0.168853 0.48745,-0.126223 0.72245,-0.361225 0.16173,-0.161734 0.5607,-0.257977 0.7947,-0.43347 0.26802,-0.201015 0.36004,-0.43347 0.72244,-0.43347 0.0916,0 0.41753,-0.562011 0.50572,-0.650204 0.34476,-0.344758 0.061,-0.273735 -0.28898,-0.361225 -0.24332,-0.06083 -0.78145,-0.60746 -1.01143,-0.72245 -0.87522,-0.437607 -1.18459,-0.534388 -1.80612,-1.155919 -0.19157,-0.191565 -0.54527,-0.261455 -0.7947,-0.361225 z"
           style="fill:#ffffff;fill-opacity:1;fill-rule:evenodd;stroke:#000000;stroke-width:1px;stroke-linecap:butt;stroke-linejoin:miter;stroke-opacity:1"
           inkscape:connector-curvature="0" />
        <ellipse
           transform="matrix(2.333333,0,0,1.642857,-220.2989,-20.45822)"
           id="path2373"
           style="opacity:1;fill:#000000;fill-opacity:1;fill-rule:evenodd;stroke:none;stroke-width:1;stroke-linecap:round;stroke-linejoin:round;stroke-miterlimit:4;stroke-dasharray:none;stroke-dashoffset:1;stroke-opacity:1"
           cx="165.22421"
           cy="31.823902"
           rx="0.43346974"
           ry="1.0114294" />
        <path
           id="path2428"
           d="m 144.39549,115.49983 -0.80593,-1.20889"
           style="fill:none;fill-opacity:0.75;fill-rule:evenodd;stroke:#000000;stroke-width:1px;stroke-linecap:round;stroke-linejoin:round;stroke-opacity:1"
           inkscape:connector-curvature="0" />
      </g>
      <path
         style="fill:#f8d80e;fill-opacity:1;fill-rule:evenodd;stroke:#000000;stroke-width:1px;stroke-linecap:butt;stroke-linejoin:miter;stroke-opacity:1"
         d="m 208.49991,222.35525 c 3.11864,-0.0235 6.08345,0.28262 7.4116,4.09589 -1.33649,1.20742 -3.25146,1.45072 -5.36366,1.36529 0.90092,-1.46849 -0.68924,-3.49055 -2.04794,-5.46118 z"
         id="path2483"
         sodipodi:nodetypes="cccc"
         inkscape:connector-curvature="0" />
      <path
         style="fill:#f8d80e;fill-opacity:1;fill-rule:evenodd;stroke:#000000;stroke-width:1px;stroke-linecap:butt;stroke-linejoin:miter;stroke-opacity:1"
         d="m 203.52634,228.49908 c -1.54308,-0.11478 -3.14372,-0.41945 -4.87605,0.0124 -1.89914,0.47342 -2.64896,2.91323 -2.71819,2.91323 2.30023,0.14557 4.05025,0.1965 5.5463,1.8529 2.30792,-1.32919 1.97914,-2.95176 2.04794,-4.77853 z"
         id="path2485"
         sodipodi:nodetypes="csccc"
         inkscape:connector-curvature="0" />
      <path
         style="fill:#f8d80e;fill-opacity:1;fill-rule:evenodd;stroke:#000000;stroke-width:1px;stroke-linecap:butt;stroke-linejoin:miter;stroke-opacity:1"
         d="m 199.33294,242.34706 c -3.7643,-3.22957 -1.91153,-5.90328 2.14546,-7.80168 1.4383,0.4336 2.46067,1.35677 3.12067,2.82811 0,0 -1.70268,0.71368 -3.21819,1.65786 -2.14994,1.33943 -1.63396,2.27549 -2.04794,3.31571 z"
         id="path2487"
         sodipodi:nodetypes="cccsc"
         inkscape:connector-curvature="0" />
      <path
         style="fill:#f8d80e;fill-opacity:1;fill-rule:evenodd;stroke:#000000;stroke-width:1px;stroke-linecap:butt;stroke-linejoin:miter;stroke-opacity:1"
         d="m 203.3313,246.54046 c 1.65449,-0.82615 3.08833,-2.04727 4.48596,-3.90083 -0.59444,-1.75535 -1.75605,-2.49142 -4.1934,-2.04795 -0.6233,2.08045 -0.69152,3.86833 -0.29256,5.94878 z"
         id="path2489"
         sodipodi:nodetypes="cccc"
         inkscape:connector-curvature="0" />
      <path
         style="fill:none;fill-opacity:0.75;fill-rule:evenodd;stroke:#000000;stroke-width:1px;stroke-linecap:round;stroke-linejoin:round;stroke-opacity:1"
         d="m 207.69214,198.31541 c -4.52165,-7.36008 -8.39501,-13.75414 -7.17607,-22.08023"
         id="path2491"
         sodipodi:nodetypes="cc"
         inkscape:connector-curvature="0" />
      <path
         style="fill:none;fill-opacity:0.75;fill-rule:evenodd;stroke:#000000;stroke-width:1px;stroke-linecap:round;stroke-linejoin:round;stroke-opacity:1"
         d="m 204.34147,237.21525 c 0.75372,-0.25454 1.7591,-0.50907 4.12348,-0.76361"
         id="path2493"
         sodipodi:nodetypes="cc"
         inkscape:connector-curvature="0" />
      <path
         style="fill:none;fill-opacity:0.75;fill-rule:evenodd;stroke:#000000;stroke-width:1px;stroke-linecap:round;stroke-linejoin:round;stroke-opacity:1"
         d="m 215.5619,200.66695 c -8.94138,-8.08672 -7.90137,-12.8463 -9.06761,-18.34131"
         id="path2495"
         sodipodi:nodetypes="cc"
         inkscape:connector-curvature="0" />
      <path
         style="fill:none;fill-opacity:0.75;fill-rule:evenodd;stroke:#000000;stroke-width:1px;stroke-linecap:round;stroke-linejoin:round;stroke-opacity:1"
         d="m 223.99884,236.89707 c 0.2142,-1.24044 0.21032,-2.87366 1.84241,-3.87877"
         id="path2501"
         sodipodi:nodetypes="cc"
         inkscape:connector-curvature="0" />
      <path
         style="fill:none;fill-opacity:0.75;fill-rule:evenodd;stroke:#000000;stroke-width:1px;stroke-linecap:round;stroke-linejoin:round;stroke-opacity:1"
         d="m 233.59879,229.33347 c -0.31677,0.21317 -0.6681,0.75438 -0.87272,1.16363 -0.12446,0.24892 0.97094,0.87398 1.16363,1.06666 0.37355,0.37356 0.55074,0.57271 0.77575,0.87273"
         id="path2503"
         inkscape:connector-curvature="0" />
      <path
         style="fill:none;fill-opacity:0.75;fill-rule:evenodd;stroke:#000000;stroke-width:1px;stroke-linecap:round;stroke-linejoin:round;stroke-opacity:1"
         d="m 243.28641,220.75635 c -0.61315,-0.35119 -0.52603,-1.16573 -0.52603,-2.1041 0,-0.84617 -0.39451,-1.29489 -0.39451,-2.1041 0,-0.13151 0,-0.26301 0,-0.39452"
         id="path2505"
         inkscape:connector-curvature="0" />
      <path
         style="fill:none;fill-opacity:0.75;fill-rule:evenodd;stroke:#000000;stroke-width:1px;stroke-linecap:round;stroke-linejoin:round;stroke-opacity:1"
         d="m 249.99322,217.6002 c -0.94472,-3.07907 -2.2681,-4.26489 -3.55066,-5.65477"
         id="path2507"
         sodipodi:nodetypes="cc"
         inkscape:connector-curvature="0" />
      <path
         style="fill:none;fill-opacity:0.75;fill-rule:evenodd;stroke:#000000;stroke-width:1px;stroke-linecap:butt;stroke-linejoin:miter;stroke-opacity:1"
         d="m 241.19427,179.3877 c -9.54678,-1.42797 -7.36776,-2.85595 -9.76334,-4.28392"
         id="path2509"
         sodipodi:nodetypes="cc"
         inkscape:connector-curvature="0" />
      <path
         style="fill:none;fill-opacity:0.75;fill-rule:evenodd;stroke:#000000;stroke-width:1px;stroke-linecap:round;stroke-linejoin:round;stroke-opacity:1"
         d="m 234.12083,183.37273 c 0.47417,0.18935 1.11692,0.81805 1.69364,1.39476 0.45058,0.45058 0.86365,0.77227 1.29513,1.09589 0.69316,0.51987 1.07779,0.69738 1.99252,0.69738 1.10753,0 1.02708,-0.3641 1.69364,-0.69738 0.61142,-0.30571 1.33323,0.56699 1.79327,0.797 0.65909,0.32955 1.36718,0.29888 2.09214,0.29888 0.79233,0 1.14744,0.17522 1.59402,0.39851 0.36134,0.18067 0.97218,0.19925 1.49438,0.19925 0.4174,0 1.0806,-0.58247 1.29514,-0.79701 0.3114,-0.3114 0.87353,-0.49235 1.29514,-0.59775 0.1032,-0.0258 0.68276,0 0.797,0"
         id="path2515"
         sodipodi:nodetypes="cssssssssssc"
         inkscape:connector-curvature="0" />
      <path
         style="fill:none;fill-opacity:0.75;fill-rule:evenodd;stroke:#000000;stroke-width:1px;stroke-linecap:round;stroke-linejoin:round;stroke-opacity:1"
         d="m 235.31634,187.35777 c 2.78218,2.64054 5.8647,5.1833 19.82555,4.18428"
         id="path2517"
         sodipodi:nodetypes="cc"
         inkscape:connector-curvature="0" />
      <path
         style="fill:none;fill-opacity:0.75;fill-rule:evenodd;stroke:#000000;stroke-width:1px;stroke-linecap:round;stroke-linejoin:round;stroke-opacity:1"
         d="m 248.2677,198.31661 c 0.39895,0.10038 0.83209,0.86436 1.29514,1.09589 0.23947,0.11973 0.46492,0.26567 0.69738,0.3985 0.53839,0.30765 1.35573,0.47862 1.99252,0.79701 0.43512,0.21756 1.50016,0 1.99252,0 0.51996,0 0.84221,0.43241 1.19551,0.69738"
         id="path2519"
         inkscape:connector-curvature="0" />
      <path
         style="fill:none;fill-opacity:0.75;fill-rule:evenodd;stroke:#000000;stroke-width:1px;stroke-linecap:round;stroke-linejoin:round;stroke-opacity:1"
         d="m 248.36733,205.29043 5.28017,5.08092"
         id="path2521"
         inkscape:connector-curvature="0" />
      <path
         style="fill:none;fill-opacity:0.75;fill-rule:evenodd;stroke:#000000;stroke-width:1px;stroke-linecap:round;stroke-linejoin:round;stroke-opacity:1"
         d="m 122.70721,160.45479 c -0.12225,0.70904 -0.28692,1.63666 -0.28692,2.29538"
         id="path2527"
         sodipodi:nodetypes="cc"
         inkscape:connector-curvature="0" />
      <path
         style="fill:#f8d80e;fill-opacity:1;fill-rule:evenodd;stroke:#000000;stroke-width:1px;stroke-linecap:butt;stroke-linejoin:miter;stroke-opacity:1"
         d="m 86.501834,213.33887 c 2.271311,0.4788 2.298278,-1.7855 2.260844,-4.1285 -1.871897,-1.1996 -4.354274,-0.56777 -7.274018,1.37617 4.08059,0.91744 4.168832,1.83489 5.013174,2.75233 z"
         id="path2529"
         sodipodi:nodetypes="cccc"
         inkscape:connector-curvature="0" />
      <path
         style="fill:#f8d80e;fill-opacity:1;fill-rule:evenodd;stroke:#000000;stroke-width:1px;stroke-linecap:butt;stroke-linejoin:miter;stroke-opacity:1"
         d="m 76.868675,219.82651 c 0.430294,-1.63417 0.815473,-2.71634 5.897853,-3.83361 1.339146,2.09701 3.086543,3.70254 -0.196595,5.79956 -1.397131,-1.25926 -3.007568,-2.26256 -5.701258,-1.96595 z"
         id="path2531"
         sodipodi:nodetypes="cccc"
         inkscape:connector-curvature="0" />
      <path
         style="fill:#f8d80e;fill-opacity:1;fill-rule:evenodd;stroke:#000000;stroke-width:1px;stroke-linecap:butt;stroke-linejoin:miter;stroke-opacity:1"
         d="m 85.518859,226.31414 c 2.202134,1.18243 3.616358,2.72299 2.948926,5.20977 -3.212637,-0.93048 -4.210905,1.09154 -5.99615,2.06425 -1.935872,-2.98689 -0.515341,-5.33446 3.047224,-7.27402 z"
         id="path2533"
         sodipodi:nodetypes="cccc"
         inkscape:connector-curvature="0" />
      <path
         style="fill:#f8d80e;fill-opacity:1;fill-rule:evenodd;stroke:#000000;stroke-width:1px;stroke-linecap:butt;stroke-linejoin:miter;stroke-opacity:1"
         d="m 112.35409,233.68646 c -2.02564,-1.5396 0.9628,-6.29118 5.40636,-1.86765 -0.43925,3.25202 -2.08547,5.62625 -5.40636,6.78253 1.44936,-1.96037 1.32345,-3.90898 0,-4.91488 z"
         id="path2535"
         sodipodi:nodetypes="cccs"
         inkscape:connector-curvature="0" />
      <path
         style="fill:none;fill-opacity:0.75;fill-rule:evenodd;stroke:#000000;stroke-width:1px;stroke-linecap:round;stroke-linejoin:round;stroke-opacity:1"
         d="m 85.359457,224.8689 1.087915,-0.50211"
         id="path2537"
         inkscape:connector-curvature="0" />
      <path
         style="fill:none;fill-opacity:0.75;fill-rule:evenodd;stroke:#000000;stroke-width:1px;stroke-linecap:round;stroke-linejoin:round;stroke-opacity:1"
         d="m 99.418662,228.88582 c 0.741548,-2.23085 1.852878,-3.59886 3.263748,-4.26797"
         id="path2539"
         sodipodi:nodetypes="cc"
         inkscape:connector-curvature="0" />
      <path
         style="fill:none;fill-opacity:0.75;fill-rule:evenodd;stroke:#000000;stroke-width:1px;stroke-linecap:round;stroke-linejoin:round;stroke-opacity:1"
         d="m 86.280001,214.57556 1.338972,2.00846"
         id="path2541"
         inkscape:connector-curvature="0" />
      <path
         style="fill:none;fill-opacity:0.75;fill-rule:evenodd;stroke:#000000;stroke-width:1px;stroke-linecap:round;stroke-linejoin:round;stroke-opacity:1"
         d="m 123.55602,165.34045 c -1.80225,1.97192 -2.49586,4.28855 -2.15856,8.89327 0.30513,4.16553 -0.26331,5.8174 -0.77708,7.77082"
         id="path2543"
         sodipodi:nodetypes="csc"
         inkscape:connector-curvature="0" />
      <path
         style="fill:none;fill-opacity:0.75;fill-rule:evenodd;stroke:#000000;stroke-width:1px;stroke-linecap:round;stroke-linejoin:round;stroke-opacity:1"
         d="m 107.29227,227.23568 c -0.2155,-0.0801 -0.70088,0.0257 -1.08035,0.40513 -0.25337,0.25336 -0.42577,0.37888 -0.6077,0.74274 -0.17978,0.35955 -0.001,0.87489 0.13504,1.14787 0.15774,0.31547 0.26098,0.58948 0.40514,0.87779"
         id="path2545"
         inkscape:connector-curvature="0" />
      <path
         style="fill:none;fill-opacity:0.75;fill-rule:evenodd;stroke:#000000;stroke-width:1px;stroke-linecap:round;stroke-linejoin:round;stroke-opacity:1"
         d="m 126.67099,217.10605 c -1.96277,-2.18418 -2.97617,-4.44139 -1.27521,-6.90739"
         id="path2547"
         sodipodi:nodetypes="cc"
         inkscape:connector-curvature="0" />
      <path
         style="fill:none;fill-opacity:0.75;fill-rule:evenodd;stroke:#000000;stroke-width:1px;stroke-linecap:round;stroke-linejoin:round;stroke-opacity:1"
         d="m 128.47754,206.47929 c -0.8448,1.08306 -1.13767,2.44209 1.38148,5.20712"
         id="path2549"
         sodipodi:nodetypes="cc"
         inkscape:connector-curvature="0" />
      <path
         style="fill:none;fill-opacity:0.75;fill-rule:evenodd;stroke:#000000;stroke-width:1px;stroke-linecap:round;stroke-linejoin:round;stroke-opacity:1"
         d="m 133.2,195.4 c -0.74645,3.45447 3.28686,4.59779 1.00296,5.99527"
         id="path2551"
         sodipodi:nodetypes="cc"
         inkscape:connector-curvature="0" />
      <path
         style="fill:none;fill-opacity:0.75;fill-rule:evenodd;stroke:#000000;stroke-width:1px;stroke-linecap:round;stroke-linejoin:round;stroke-opacity:1"
         d="m 137.1171,186.52489 c 0.0306,0.48883 0.0611,0.97767 0.0917,1.4665 0.0469,0.74972 0.37344,1.02183 0.64159,1.55815 0.21597,0.43193 0.26035,0.53531 0.64159,0.91655 0.43809,0.43809 0.94215,0.92012 1.28319,1.37484 0.20488,0.27318 0.87881,0.69551 1.19152,1.00821 0.29746,0.29747 0.73453,1.05469 1.00821,1.19154"
         id="path2553"
         sodipodi:nodetypes="csssssc"
         inkscape:connector-curvature="0" />
      <path
         style="fill:none;fill-opacity:0.75;fill-rule:evenodd;stroke:#000000;stroke-width:1px;stroke-linecap:round;stroke-linejoin:round;stroke-opacity:1"
         d="m 140.60002,190.37444 c 0.0553,0.11057 1.06491,0.75285 1.28318,0.91656 0.46616,0.34962 1.07031,0.44842 1.6498,0.64159 0.44198,0.14732 0.75376,0.47366 1.09987,0.73324"
         id="path2555"
         inkscape:connector-curvature="0" />
      <path
         style="fill:none;fill-opacity:0.75;fill-rule:evenodd;stroke:#000000;stroke-width:1px;stroke-linecap:round;stroke-linejoin:round;stroke-opacity:1"
         d="m 145.557,185.39316 c -2.70031,-1.86055 -4.20379,-4.78495 -4.23195,-9.02075"
         id="path2557"
         sodipodi:nodetypes="cc"
         inkscape:connector-curvature="0" />
      <path
         style="fill:none;fill-opacity:0.75;fill-rule:evenodd;stroke:#000000;stroke-width:1px;stroke-linecap:round;stroke-linejoin:round;stroke-opacity:1"
         d="m 146.55931,175.25874 c -0.40835,0.29698 -0.67827,2.54132 -0.55684,2.78418 0.27008,0.54016 0.5371,0.96284 0.77957,1.44777 0.24836,0.49671 0.4507,0.9014 0.66821,1.33641 0.13618,0.27238 0.55434,0.55435 0.6682,0.66821"
         id="path2559"
         sodipodi:nodetypes="csssc"
         inkscape:connector-curvature="0" />
      <path
         style="fill:none;fill-opacity:0.75;fill-rule:evenodd;stroke:#000000;stroke-width:1px;stroke-linecap:round;stroke-linejoin:round;stroke-opacity:1"
         d="m 152.46177,173.25413 c -0.13904,0.3824 -0.11136,1.49539 -0.11136,2.22734 0,1.01694 0.0625,1.51033 0.55683,2.00461 0.26616,0.26616 0.26083,0.10433 0.55684,0.22274"
         id="path2561"
         inkscape:connector-curvature="0" />
      <path
         style="fill:none;fill-opacity:0.75;fill-rule:evenodd;stroke:#000000;stroke-width:1px;stroke-linecap:round;stroke-linejoin:round;stroke-opacity:1"
         d="m 157.36193,175.48147 c 1.51825,1.22881 2.98687,2.50725 3.34102,4.90016"
         id="path2563"
         sodipodi:nodetypes="cc"
         inkscape:connector-curvature="0" />
      <path
         style="fill:none;fill-opacity:0.75;fill-rule:evenodd;stroke:#000000;stroke-width:1px;stroke-linecap:round;stroke-linejoin:round;stroke-opacity:1"
         d="m 164.73936,169.4352 c -0.10757,0.83364 -0.21513,1.66729 -0.3227,2.50094 -0.076,0.58903 -0.25173,1.16824 -0.40338,1.77486 -0.15214,0.60858 -0.15013,1.49704 0,2.09756 0.0146,0.0583 0.10757,0.0538 0.16135,0.0807"
         id="path2565"
         inkscape:connector-curvature="0" />
    </g>
  </g>
</svg>
